<svg width="1460" height="470" viewBox="0 0 1460 470" fill="none" xmlns="http://www.w3.org/2000/svg">
<g filter="url(#filter0_d_31_2)">
<rect x="156.116" y="84" width="242.336" height="242.336" rx="18" transform="rotate(12.1768 156.116 84)" fill="#C1C1C1"/>
<rect x="129.489" y="110.937" width="237.54" height="237.54" rx="18" fill="#101010"/>
<path d="M248.258 199.096L274.768 214.402V245.013L248.258 260.318L221.749 245.013V214.402L248.258 199.096Z" fill="white"/>
<path d="M189.485 199.096L215.995 214.402V245.013L189.485 260.318L162.976 245.013V214.402L189.485 199.096Z" fill="white"/>
<path d="M307.031 199.096L333.54 214.402V245.013L307.031 260.318L280.521 245.013V214.402L307.031 199.096Z" fill="white"/>
<path d="M277.644 150.119L304.154 165.425V196.036L277.644 211.341L251.135 196.036V165.425L277.644 150.119Z" fill="white"/>
<path d="M218.872 150.119L245.381 165.425V196.036L218.872 211.341L192.362 196.036V165.425L218.872 150.119Z" fill="white"/>
<path d="M218.872 248.074L245.381 263.379V293.99L218.872 309.295L192.362 293.99V263.379L218.872 248.074Z" fill="white"/>
<path d="M275.196 248.074L301.705 263.379V293.99L275.196 309.295L248.686 293.99V263.379L275.196 248.074Z" fill="white"/>
<g filter="url(#filter1_f_31_2)">
<path d="M248.258 199.096L274.768 214.402V245.013L248.258 260.318L221.749 245.013V214.402L248.258 199.096Z" fill="white"/>
<path d="M189.485 199.096L215.995 214.402V245.013L189.485 260.318L162.976 245.013V214.402L189.485 199.096Z" fill="white"/>
<path d="M307.031 199.096L333.54 214.402V245.013L307.031 260.318L280.521 245.013V214.402L307.031 199.096Z" fill="white"/>
<path d="M277.644 150.119L304.154 165.425V196.036L277.644 211.341L251.135 196.036V165.425L277.644 150.119Z" fill="white"/>
<path d="M218.872 150.119L245.381 165.425V196.036L218.872 211.341L192.362 196.036V165.425L218.872 150.119Z" fill="white"/>
<path d="M218.872 248.074L245.381 263.379V293.99L218.872 309.295L192.362 293.99V263.379L218.872 248.074Z" fill="white"/>
<path d="M275.196 248.074L301.705 263.379V293.99L275.196 309.295L248.686 293.99V263.379L275.196 248.074Z" fill="white"/>
</g>
</g>
<g filter="url(#filter2_d_31_2)">
<path d="M555.49 312L508.249 135.853H540.964L571.604 268.787H572.214L607.492 135.853H636.057L671.335 268.787H671.945L702.585 135.853H735.178L688.059 312H657.663L622.141 185.535H621.408L585.886 312H555.49ZM774.606 314.197C766.062 314.197 758.493 312.57 751.901 309.314C745.391 305.978 740.305 301.38 736.643 295.521C733.062 289.58 731.271 282.785 731.271 275.135V274.891C731.271 267.16 733.184 260.568 737.009 255.115C740.915 249.581 746.53 245.228 753.854 242.054C761.179 238.799 770.049 236.845 780.466 236.194L829.904 233.143V253.284L784.738 256.092C777.251 256.58 771.514 258.37 767.526 261.463C763.539 264.555 761.545 268.665 761.545 273.792V273.914C761.545 279.204 763.539 283.395 767.526 286.487C771.595 289.498 776.966 291.004 783.64 291.004C789.499 291.004 794.707 289.824 799.265 287.464C803.903 285.104 807.565 281.889 810.251 277.82C812.937 273.751 814.279 269.153 814.279 264.026V225.208C814.279 218.698 812.204 213.571 808.054 209.827C803.985 206.002 798.085 204.09 790.354 204.09C783.192 204.09 777.455 205.636 773.142 208.729C768.828 211.74 766.143 215.646 765.085 220.447L764.841 221.546H736.765L736.887 220.081C737.538 212.431 740.101 205.595 744.577 199.573C749.053 193.47 755.238 188.668 763.132 185.169C771.107 181.67 780.547 179.92 791.452 179.92C802.276 179.92 811.634 181.71 819.528 185.291C827.504 188.872 833.648 193.877 837.961 200.306C842.355 206.735 844.553 214.303 844.553 223.011V312H814.279V292.103H813.547C811.105 296.578 807.932 300.485 804.025 303.821C800.119 307.158 795.643 309.721 790.598 311.512C785.633 313.302 780.303 314.197 774.606 314.197ZM919.748 314.563C908.436 314.563 898.752 312.895 890.695 309.559C882.72 306.222 876.454 301.543 871.896 295.521C867.421 289.417 864.694 282.378 863.718 274.402L863.596 273.304H893.503L893.747 274.402C894.886 280.018 897.572 284.371 901.804 287.464C906.117 290.556 912.139 292.103 919.87 292.103C924.834 292.103 929.066 291.492 932.565 290.271C936.065 289.051 938.75 287.26 940.622 284.9C942.575 282.54 943.552 279.773 943.552 276.6V276.478C943.552 272.653 942.25 269.56 939.646 267.2C937.041 264.759 932.362 262.765 925.607 261.219L904.123 256.458C895.904 254.586 889.027 252.023 883.493 248.768C877.959 245.512 873.809 241.484 871.042 236.683C868.275 231.8 866.892 226.144 866.892 219.715V219.593C866.892 211.699 869.048 204.782 873.361 198.841C877.674 192.9 883.737 188.261 891.55 184.925C899.362 181.588 908.436 179.92 918.771 179.92C929.514 179.92 938.71 181.71 946.359 185.291C954.009 188.872 959.909 193.673 964.06 199.695C968.291 205.717 970.57 212.472 970.896 219.959L971.018 221.302H942.697L942.575 220.325C941.924 215.117 939.564 210.844 935.495 207.508C931.426 204.09 925.852 202.381 918.771 202.381C914.296 202.381 910.389 203.032 907.053 204.334C903.798 205.636 901.275 207.467 899.484 209.827C897.775 212.187 896.921 214.954 896.921 218.128V218.25C896.921 220.691 897.531 222.889 898.752 224.842C899.973 226.795 901.926 228.504 904.611 229.969C907.297 231.352 910.878 232.573 915.354 233.631L936.838 238.392C950.266 241.403 959.828 245.716 965.524 251.331C971.221 256.865 974.069 264.311 974.069 273.67V273.792C974.069 281.93 971.75 289.091 967.111 295.276C962.473 301.38 956.044 306.141 947.824 309.559C939.686 312.895 930.327 314.563 919.748 314.563ZM993.479 354.725V182.605H1023.75V204.944H1024.48C1027.01 199.736 1030.18 195.301 1034.01 191.639C1037.91 187.895 1042.43 185.006 1047.56 182.972C1052.76 180.937 1058.42 179.92 1064.52 179.92C1075.51 179.92 1084.99 182.646 1092.97 188.099C1101.02 193.47 1107.21 201.201 1111.52 211.292C1115.92 221.383 1118.11 233.387 1118.11 247.303V247.425C1118.11 261.259 1115.92 273.222 1111.52 283.313C1107.21 293.323 1101.06 301.054 1093.09 306.507C1085.19 311.878 1075.84 314.563 1065.01 314.563C1058.91 314.563 1053.21 313.587 1047.92 311.634C1042.71 309.681 1038.12 306.873 1034.13 303.211C1030.14 299.549 1026.93 295.195 1024.48 290.149H1023.75V354.725H993.479ZM1055.61 289.051C1062.12 289.051 1067.74 287.342 1072.46 283.924C1077.18 280.506 1080.8 275.704 1083.32 269.52C1085.93 263.253 1087.23 255.888 1087.23 247.425V247.303C1087.23 238.595 1085.93 231.149 1083.32 224.964C1080.8 218.698 1077.14 213.896 1072.34 210.56C1067.62 207.223 1062.04 205.555 1055.61 205.555C1049.35 205.555 1043.81 207.264 1039.01 210.682C1034.21 214.1 1030.43 218.942 1027.66 225.208C1024.97 231.393 1023.63 238.758 1023.63 247.303V247.425C1023.63 255.888 1024.97 263.253 1027.66 269.52C1030.43 275.704 1034.21 280.506 1039.01 283.924C1043.81 287.342 1049.35 289.051 1055.61 289.051ZM1194.65 314.563C1181.71 314.563 1170.56 311.837 1161.2 306.385C1151.93 300.932 1144.81 293.201 1139.84 283.191C1134.88 273.182 1132.39 261.341 1132.39 247.669V247.547C1132.39 233.956 1134.88 222.116 1139.84 212.024C1144.89 201.852 1151.93 193.958 1160.96 188.343C1170.07 182.728 1180.82 179.92 1193.19 179.92C1205.47 179.92 1216.09 182.646 1225.05 188.099C1234.08 193.47 1241 201.038 1245.8 210.804C1250.68 220.569 1253.12 231.963 1253.12 244.983V254.749H1147.41V234.485H1238.6L1223.95 253.406V241.688C1223.95 233.224 1222.65 226.185 1220.04 220.569C1217.44 214.954 1213.86 210.763 1209.3 207.996C1204.74 205.148 1199.49 203.724 1193.55 203.724C1187.53 203.724 1182.16 205.188 1177.44 208.118C1172.8 210.966 1169.14 215.239 1166.45 220.936C1163.85 226.632 1162.55 233.549 1162.55 241.688V253.406C1162.55 261.3 1163.85 268.055 1166.45 273.67C1169.14 279.204 1172.92 283.476 1177.8 286.487C1182.69 289.417 1188.51 290.882 1195.26 290.882C1200.31 290.882 1204.74 290.109 1208.57 288.562C1212.39 286.935 1215.52 284.86 1217.97 282.337C1220.49 279.814 1222.24 277.088 1223.21 274.158L1223.46 273.304H1251.78L1251.54 274.646C1250.48 279.611 1248.52 284.493 1245.68 289.295C1242.83 294.015 1239 298.287 1234.2 302.112C1229.4 305.937 1223.7 308.989 1217.11 311.268C1210.52 313.465 1203.03 314.563 1194.65 314.563ZM1272.53 312V182.605H1302.8V204.944H1303.54C1305.49 197.132 1309.03 191.028 1314.16 186.634C1319.37 182.158 1325.71 179.92 1333.2 179.92C1335.07 179.92 1336.86 180.042 1338.57 180.286C1340.28 180.53 1341.7 180.815 1342.84 181.141V208.606C1341.62 208.118 1339.87 207.711 1337.59 207.386C1335.4 207.06 1333 206.897 1330.39 206.897C1324.7 206.897 1319.77 208.077 1315.62 210.438C1311.47 212.716 1308.3 216.093 1306.1 220.569C1303.9 225.045 1302.8 230.498 1302.8 236.927V312H1272.53Z" fill="white"/>
</g>
<defs>
<filter id="filter0_d_31_2" x="104.388" y="87.388" width="289.224" height="289.224" filterUnits="userSpaceOnUse" color-interpolation-filters="sRGB">
<feFlood flood-opacity="0" result="BackgroundImageFix"/>
<feColorMatrix in="SourceAlpha" type="matrix" values="0 0 0 0 0 0 0 0 0 0 0 0 0 0 0 0 0 0 127 0" result="hardAlpha"/>
<feOffset dy="4"/>
<feGaussianBlur stdDeviation="2"/>
<feComposite in2="hardAlpha" operator="out"/>
<feColorMatrix type="matrix" values="0 0 0 0 0 0 0 0 0 0 0 0 0 0 0 0 0 0 0.25 0"/>
<feBlend mode="normal" in2="BackgroundImageFix" result="effect1_dropShadow_31_2"/>
<feBlend mode="normal" in="SourceGraphic" in2="effect1_dropShadow_31_2" result="shape"/>
</filter>
<filter id="filter1_f_31_2" x="151.676" y="138.819" width="193.165" height="181.776" filterUnits="userSpaceOnUse" color-interpolation-filters="sRGB">
<feFlood flood-opacity="0" result="BackgroundImageFix"/>
<feBlend mode="normal" in="SourceGraphic" in2="BackgroundImageFix" result="shape"/>
<feGaussianBlur stdDeviation="5.65" result="effect1_foregroundBlur_31_2"/>
</filter>
<filter id="filter2_d_31_2" x="499.249" y="135.853" width="843.595" height="226.872" filterUnits="userSpaceOnUse" color-interpolation-filters="sRGB">
<feFlood flood-opacity="0" result="BackgroundImageFix"/>
<feColorMatrix in="SourceAlpha" type="matrix" values="0 0 0 0 0 0 0 0 0 0 0 0 0 0 0 0 0 0 127 0" result="hardAlpha"/>
<feOffset dx="-5" dy="4"/>
<feGaussianBlur stdDeviation="2"/>
<feComposite in2="hardAlpha" operator="out"/>
<feColorMatrix type="matrix" values="0 0 0 0 0 0 0 0 0 0 0 0 0 0 0 0 0 0 0.25 0"/>
<feBlend mode="normal" in2="BackgroundImageFix" result="effect1_dropShadow_31_2"/>
<feBlend mode="normal" in="SourceGraphic" in2="effect1_dropShadow_31_2" result="shape"/>
</filter>
</defs>
</svg>
