<svg width="206" height="206" viewBox="0 0 206 206" fill="none" xmlns="http://www.w3.org/2000/svg">
<rect x="36.5255" width="173.165" height="173.165" rx="18" transform="rotate(12.1768 36.5255 0)" fill="#C1C1C1"/>
<rect x="17.4987" y="19.2485" width="169.737" height="169.737" rx="18" fill="#101010"/>
<path d="M102.367 82.2437L121.31 93.1804V115.054L102.367 125.99L83.4244 115.054V93.1804L102.367 82.2437Z" fill="white"/>
<path d="M60.3704 82.2437L79.3133 93.1804V115.054L60.3704 125.99L41.4275 115.054V93.1804L60.3704 82.2437Z" fill="white"/>
<path d="M144.364 82.2437L163.307 93.1804V115.054L144.364 125.99L125.421 115.054V93.1804L144.364 82.2437Z" fill="white"/>
<path d="M123.366 47.2464L142.308 58.1831V80.0564L123.366 90.9931L104.423 80.0564V58.1831L123.366 47.2464Z" fill="white"/>
<path d="M81.3688 47.2464L100.312 58.1831V80.0564L81.3688 90.9931L62.426 80.0564V58.1831L81.3688 47.2464Z" fill="white"/>
<path d="M81.3688 117.241L100.312 128.178V150.051L81.3688 160.988L62.426 150.051V128.178L81.3688 117.241Z" fill="white"/>
<path d="M121.616 117.241L140.559 128.178V150.051L121.616 160.988L102.673 150.051V128.178L121.616 117.241Z" fill="white"/>
</svg>
